<mxfile host="app.diagrams.net" modified="2023-11-08T01:44:04.934Z" agent="Mozilla/5.0 (Windows NT 10.0; Win64; x64) AppleWebKit/537.36 (KHTML, like Gecko) Chrome/118.0.0.0 Safari/537.36" etag="BCXuqYis_Nt8r4st9TR9" version="22.0.8" type="github">
  <diagram name="第 1 页" id="i8u_OBD3O_TQcKY7orfp">
    <mxGraphModel dx="794" dy="432" grid="1" gridSize="10" guides="1" tooltips="1" connect="1" arrows="1" fold="1" page="1" pageScale="1" pageWidth="827" pageHeight="1169" math="0" shadow="0">
      <root>
        <mxCell id="0" />
        <mxCell id="1" parent="0" />
        <mxCell id="NINAPxGtuBQYfsfIf3ee-1" value="k8s集群" style="rounded=0;whiteSpace=wrap;html=1;" vertex="1" parent="1">
          <mxGeometry x="480" y="370" width="100" height="40" as="geometry" />
        </mxCell>
        <mxCell id="NINAPxGtuBQYfsfIf3ee-2" value="Ubuntu" style="rounded=0;whiteSpace=wrap;html=1;" vertex="1" parent="1">
          <mxGeometry x="80" y="270" width="110" height="40" as="geometry" />
        </mxCell>
        <mxCell id="NINAPxGtuBQYfsfIf3ee-6" value="............." style="rounded=0;whiteSpace=wrap;html=1;" vertex="1" parent="1">
          <mxGeometry x="80" y="470" width="110" height="40" as="geometry" />
        </mxCell>
        <mxCell id="NINAPxGtuBQYfsfIf3ee-7" value="Ubuntu" style="rounded=0;whiteSpace=wrap;html=1;" vertex="1" parent="1">
          <mxGeometry x="80" y="410" width="110" height="40" as="geometry" />
        </mxCell>
        <mxCell id="NINAPxGtuBQYfsfIf3ee-8" value="Ubuntu" style="rounded=0;whiteSpace=wrap;html=1;" vertex="1" parent="1">
          <mxGeometry x="80" y="340" width="110" height="40" as="geometry" />
        </mxCell>
        <mxCell id="NINAPxGtuBQYfsfIf3ee-10" value="" style="shape=link;html=1;rounded=0;" edge="1" parent="1">
          <mxGeometry width="100" relative="1" as="geometry">
            <mxPoint x="260" y="389.5" as="sourcePoint" />
            <mxPoint x="360" y="389.5" as="targetPoint" />
          </mxGeometry>
        </mxCell>
      </root>
    </mxGraphModel>
  </diagram>
</mxfile>
